<svg width="36" height="36" viewBox="0 0 36 36" fill="none" xmlns="http://www.w3.org/2000/svg">
<path d="M7 21.695V29.5788C7 32.2987 9.24 34.5062 12 34.5062C14.76 34.5062 17 32.2987 17 29.5788V5.92738C17 3.20747 19.24 1 22 1H23C25.76 1 28 3.20747 28 5.92738V15.7821" stroke="#880808" stroke-width="2" stroke-linecap="round" stroke-linejoin="round"/>
<path d="M9 1H5C2.79086 1 1 2.76485 1 4.9419V17.7531C1 19.9301 2.79086 21.695 5 21.695H9C11.2091 21.695 13 19.9301 13 17.7531V4.9419C13 2.76485 11.2091 1 9 1Z" stroke="#880808" stroke-width="2" stroke-linecap="round" stroke-linejoin="round"/>
<path d="M21 27.6078C21 31.4216 24.13 34.5062 28 34.5062C31.87 34.5062 35 31.4216 35 27.6078C35 23.7941 28 15.7821 28 15.7821C28 15.7821 21 23.7941 21 27.6078Z" stroke="#880808" stroke-width="2" stroke-linecap="round" stroke-linejoin="round"/>
<path d="M9 4.94189V16.7676" stroke="#880808" stroke-width="2" stroke-linecap="round" stroke-linejoin="round"/>
<path d="M6 6.91284H9" stroke="#880808" stroke-width="2" stroke-linecap="round" stroke-linejoin="round"/>
<path d="M6 10.8548H9" stroke="#880808" stroke-width="2" stroke-linecap="round" stroke-linejoin="round"/>
<path d="M6 14.7967H9" stroke="#880808" stroke-width="2" stroke-linecap="round" stroke-linejoin="round"/>
<path d="M28 24.6514V30.5643" stroke="#880808" stroke-width="2" stroke-linecap="round" stroke-linejoin="round"/>
<path d="M31 27.6078H25" stroke="#880808" stroke-width="2" stroke-linecap="round" stroke-linejoin="round"/>
<path d="M26 12.8257H30" stroke="#880808" stroke-width="2" stroke-linecap="round" stroke-linejoin="round"/>
<path d="M5 25.6369H9" stroke="#880808" stroke-width="2" stroke-linecap="round" stroke-linejoin="round"/>
</svg>
