<svg width="9" height="11" viewBox="0 0 9 11" fill="none" xmlns="http://www.w3.org/2000/svg">
<path d="M5.61373 11C5.39738 11 5.19578 10.988 5.00892 10.9641C4.83191 10.9521 4.70898 10.9461 4.64014 10.9461H4.27135C4.18284 10.9341 4.04025 10.9281 3.84356 10.9281C3.5682 10.9281 3.37152 10.8802 3.25351 10.7844C3.10599 10.6526 3.03223 9.39063 3.03223 8.99528C3.03223 8.9833 3.03715 8.97132 3.04699 8.95934C3.05682 8.93538 3.06174 8.90543 3.06174 8.86949C3.06174 8.76166 3.06665 8.67181 3.07649 8.59993L3.13549 8.1866C3.13549 8.1267 3.11583 7.97695 3.07649 7.73734L3.06174 7.46778C3.06174 7.41986 3.05682 7.38392 3.04699 7.35996C3.03715 7.32402 3.03223 7.30005 3.03223 7.28807H1.66035C1.33582 7.32401 0.280277 7.26411 0.132763 7.10837C0.0639228 7.06045 0.0295028 6.95262 0.0295028 6.7849V4.77219C0.00983428 4.64041 0 4.4008 0 4.05337C0 3.95752 0.0442542 3.85569 0.132763 3.74787C0.231105 3.65202 0.319614 3.6041 0.398288 3.6041H3.03223V2.02269C3.03223 1.5914 3.09124 0.3055 3.20925 0.161735C3.24859 0.0778726 3.3371 0.0359413 3.47478 0.0359413C3.75014 0.0359413 3.94682 0.0239608 4.06483 0H5.68749C5.78583 0 5.87434 0.0599019 5.95301 0.179706C6.04152 0.287529 6.08578 1.38773 6.08578 1.48357V3.64004C6.48898 3.67598 6.88727 3.69396 7.28064 3.69396C7.56584 3.69396 8.58696 3.71792 8.70497 3.76584C8.90166 3.83772 9 3.97549 9 4.17916L8.98525 5.34725C8.97542 5.44309 8.9705 5.59884 8.9705 5.81449V6.29969C8.9705 6.50336 8.96066 6.6591 8.941 6.76693C8.93116 6.87475 8.90166 6.95861 8.85249 7.01851C8.75414 7.19822 7.7281 7.28807 7.4134 7.28807H6.04152C6.04152 7.46778 6.03169 7.73734 6.01202 8.09675V8.88746C6.01202 9.22291 5.99235 10.4609 5.95301 10.6046C5.87434 10.8682 5.76125 11 5.61373 11Z" fill="white"/>
</svg>
