<svg width="16" height="17" viewBox="0 0 16 17" fill="none" xmlns="http://www.w3.org/2000/svg">
<path fill-rule="evenodd" clip-rule="evenodd" d="M11.0022 5.00366C11.0022 6.66188 9.65822 8.00586 8 8.00586C6.34179 8.00586 4.99781 6.66188 4.99781 5.00366C4.99781 3.34545 6.34179 2.00147 8 2.00147C9.65822 2.00147 11.0022 3.34545 11.0022 5.00366ZM13.0037 5.00366C13.0037 7.76669 10.764 10.0073 8 10.0073C5.23698 10.0073 2.99634 7.76669 2.99634 5.00366C2.99634 2.24064 5.23698 0 8 0C10.764 0 13.0037 2.24064 13.0037 5.00366ZM15.9929 15.5134C15.9208 14.956 15.7897 14.4166 15.6066 13.9022C15.1463 12.6092 14.3527 11.4704 13.3269 10.5827C13.2569 10.5217 13.1848 10.4617 13.1118 10.4026L13.1027 10.3956C13.0617 10.3626 13.0207 10.3306 12.9787 10.2985C12.8406 10.1915 12.6735 10.1254 12.4983 10.1194C11.987 10.1024 11.7278 10.2215 11.5276 10.4467C11.1683 10.854 11.3635 11.4964 11.7598 11.8767C11.7738 11.8907 11.7878 11.9037 11.8018 11.9157C11.8168 11.9297 11.8328 11.9427 11.8488 11.9558C11.8959 11.9938 11.9439 12.0328 11.9899 12.0728C12.151 12.2099 12.3042 12.356 12.4483 12.5092C12.9927 13.0846 13.421 13.7641 13.6972 14.5106H11.4786H4.52047H2.30183C2.57903 13.7641 3.00636 13.0846 3.55076 12.5092C3.69387 12.3581 3.84497 12.215 4.00309 12.0789C4.05213 12.0368 4.10117 11.9958 4.15121 11.9548C4.16722 11.9427 4.18323 11.9297 4.19824 11.9157C4.21225 11.9027 4.22625 11.8897 4.24026 11.8767C4.63655 11.4964 4.83269 10.853 4.47243 10.4467C4.27328 10.2215 4.01309 10.1024 3.50171 10.1194C3.32759 10.1254 3.15948 10.1915 3.02138 10.2975C2.97935 10.3296 2.9383 10.3626 2.89727 10.3956L2.88829 10.4026C2.81023 10.4657 2.73316 10.5307 2.6571 10.5968C1.63936 11.4814 0.851786 12.6162 0.393451 13.9022C0.209316 14.4166 0.0792037 14.956 0.00715095 15.5134C-0.0629004 16.0618 0.391437 16.5121 0.943842 16.5121H2.30183H13.6972H15.0552C15.6076 16.5121 16.0629 16.0618 15.9929 15.5134Z" fill="#6C6B6B"/>
</svg>
