<svg width="28" height="45" viewBox="0 0 28 45" fill="none" xmlns="http://www.w3.org/2000/svg">
<path fill-rule="evenodd" clip-rule="evenodd" d="M4.66 15.7205C4.62438 9.21851 8.92782 4.97747 13.9207 4.94665C18.9136 4.91583 23.2632 9.10345 23.2988 15.6055C23.3036 16.4834 23.0164 18.0706 22.2462 20.3878C21.5081 22.6035 20.4572 25.1204 19.2458 27.7173C17.5923 31.2544 15.7151 34.788 14.1 37.6842C12.4533 34.8081 10.5376 31.298 8.8454 27.7816C7.60572 25.1997 6.52724 22.696 5.76491 20.4896C4.96941 18.182 4.66481 16.5985 4.66 15.7205ZM13.8936 0.000273003C6.17247 0.0479379 -0.0493782 6.68258 0.00029365 15.7493C0.0385298 22.7286 8.39988 37.4696 12.2492 43.8912C13.1427 45.3796 15.1417 45.3672 16.0188 43.868C19.7975 37.3993 27.9968 22.556 27.9585 15.5767C27.9088 6.50999 21.6147 -0.0473919 13.8936 0.000273003ZM14.002 19.7858C16.5765 19.7699 18.6496 17.5435 18.6346 14.8106C18.6196 12.0778 16.5223 9.87713 13.9478 9.89303C11.3733 9.90892 9.30022 12.1353 9.31519 14.8682C9.33016 17.601 11.4275 19.8017 14.002 19.7858Z" fill="#C62C2C"/>
</svg>
