<svg width="18" height="23" viewBox="0 0 18 23" fill="none" xmlns="http://www.w3.org/2000/svg">
<path d="M18 18.5383C18 22.2719 12.8638 22.7044 9 22.7044C8.61057 22.7044 8.22679 22.6988 7.84981 22.6874C7.40151 22.6761 7.0483 22.3003 7.06189 21.8496C7.07434 21.4001 7.46151 21.0618 7.89623 21.0584C8.25849 21.0686 8.62642 21.0732 9 21.0732C13.8928 21.0732 16.3743 20.2206 16.3743 18.5383C16.3743 16.84 13.8928 15.9784 9 15.9784C4.10717 15.9784 1.62566 16.8321 1.62566 18.5156C1.62566 19.0661 1.82038 19.8642 3.51057 20.4386C3.93623 20.5828 4.16377 21.0448 4.02 21.4705C3.87509 21.8962 3.41547 22.1289 2.98868 21.9813C0.518491 21.1424 0 19.6337 0 18.5156C0 14.857 4.92872 14.3673 8.76191 14.3488L9.42846 14.3491C11.9848 14.3622 18 14.59 18 18.5383ZM9 0C12.3419 0 15.06 2.72673 15.06 6.07783C15.06 9.42778 12.3419 12.1545 9 12.1545C5.65811 12.1545 2.93887 9.42778 2.93887 6.07783C2.93887 2.72673 5.65811 0 9 0ZM9 1.63127C6.55472 1.63127 4.56566 3.62581 4.56566 6.07783C4.56566 8.52871 6.55472 10.5232 9 10.5232C11.4453 10.5232 13.4343 8.52871 13.4343 6.07783C13.4343 3.62581 11.4453 1.63127 9 1.63127Z" fill="#880808"/>
</svg>
