<svg width="34" height="46" viewBox="0 0 34 46" fill="none" xmlns="http://www.w3.org/2000/svg">
<path d="M18.5569 34.8533L18.5435 30.3612L22.7753 30.3469C23.7103 30.3438 24.4656 29.5368 24.4627 28.5443C24.4597 27.5518 23.6995 26.75 22.7646 26.7532L18.5327 26.7674L18.5193 22.2752C18.5164 21.2827 17.7562 20.4809 16.8212 20.4841C15.8863 20.4872 15.1309 21.2941 15.1339 22.2866L15.1473 26.7788L10.9155 26.793C9.98048 26.7962 9.22513 27.6031 9.22809 28.5956C9.23106 29.5881 9.99122 30.3899 10.9262 30.3868L15.158 30.3725L15.1714 34.8647C15.1744 35.8572 15.9346 36.659 16.8695 36.6559C17.8045 36.6528 18.5599 35.8458 18.5569 34.8533ZM7.81204 10.5473C11.5717 5.10147 15.2726 0.76981 15.4284 0.587842C15.748 0.214754 16.2006 0.00160423 16.6754 6.14696e-06C17.1502 -0.00159193 17.6041 0.208506 17.9259 0.579435C18.0828 0.760351 21.8094 5.06736 25.6016 10.4874C30.8417 17.9774 33.5045 23.7416 33.5161 27.6207L33.5176 28.112C33.547 37.9443 26.0534 45.9688 16.8128 45.9999C13.9421 46.0096 11.1064 45.233 8.61247 43.754C7.79606 43.27 7.50417 42.1753 7.96014 41.309C8.41612 40.4427 9.44704 40.1325 10.2634 40.6166C12.2507 41.795 14.5116 42.4139 16.8021 42.4062C24.1757 42.3814 30.1556 35.9742 30.1321 28.1231L30.1307 27.6321C30.1217 24.6286 27.5541 19.3094 22.9007 12.6545C20.5123 9.23861 18.1007 6.22045 16.6885 4.50693C15.2912 6.22464 12.9079 9.24596 10.5427 12.6719C5.91852 19.3696 3.37652 24.7148 3.3855 27.7221L3.38697 28.2134C3.39391 30.536 3.90867 32.7485 4.91686 34.7883C5.35126 35.6671 5.03216 36.7533 4.20436 37.2144C3.37688 37.6752 2.35328 37.3368 1.91887 36.4581C0.673188 33.9372 0.0100644 31.0903 0.0015034 28.2245L3.67237e-05 27.7335C-0.0115509 23.8544 2.61676 18.0724 7.81204 10.5473Z" fill="#C62C2C"/>
</svg>
