<svg width="16" height="17" viewBox="0 0 16 17" fill="none" xmlns="http://www.w3.org/2000/svg">
<path fill-rule="evenodd" clip-rule="evenodd" d="M8.6854 6.96284L11.598 3.92997L12.221 4.57505L9.30826 7.60792L8.44851 7.85334L8.6854 6.96284ZM12.8438 2.63982L13.4579 3.28489L14.2475 2.4701V2.46554C14.2475 2.45824 14.2475 2.43907 14.23 2.39801C14.2124 2.35513 14.1598 2.24383 14.0018 2.07777C13.8439 1.91171 13.7387 1.85696 13.6948 1.84053C13.6509 1.82411 13.6334 1.82411 13.6334 1.82502H13.6247L12.8438 2.63982ZM12.528 0.380666C12.5631 0.350556 12.5894 0.3232 12.6245 0.30039C12.8702 0.137068 14.0107 -0.496151 15.2389 0.787616C16.4759 2.07138 15.8706 3.25297 15.7127 3.51027C15.6864 3.54585 15.66 3.57686 15.6336 3.60605L10.3785 9.06868C10.2733 9.17999 10.1417 9.26121 9.99258 9.30318L7.42202 10.0386C6.77281 10.2265 6.16748 9.59971 6.34294 8.91631L7.05361 6.24567C7.09748 6.0933 7.17645 5.95462 7.28172 5.8424L12.528 0.380666ZM0.877311 1.91171C0.39479 1.91171 0 2.32047 0 2.82412V15.5979C0 16.1016 0.39479 16.5103 0.877311 16.5103H14.037C14.5195 16.5103 14.9143 16.1016 14.9143 15.5979V10.1234C14.9143 9.61978 14.5195 9.21102 14.037 9.21102C13.5545 9.21102 13.1597 9.61978 13.1597 10.1234V14.6855H1.75462V3.73653H6.57983C7.06235 3.73653 7.45714 3.32777 7.45714 2.82412C7.45714 2.32047 7.06235 1.91171 6.57983 1.91171H0.877311Z" fill="#6C6B6B"/>
</svg>
