<svg width="12" height="15" viewBox="0 0 12 15" fill="none" xmlns="http://www.w3.org/2000/svg">
<g filter="url(#filter0_d_1_94)">
<path d="M10.1421 8.37379C10.7694 8.37379 11.3136 7.94085 11.4547 7.32967C11.6496 6.48555 11.0085 5.67961 10.1421 5.67961H9.66882C8.7169 5.67961 7.94522 4.90793 7.94522 3.95601V3.93204C7.94522 3.1948 8.48767 2.47573 10.2302 2.47573H10.7883C11.4575 2.47573 12 1.93325 12 1.26407C12 0.647715 11.5375 0.130514 10.9228 0.0847731C10.3405 0.041438 9.59227 0 8.86027 0C5.65484 0 3.56166 1.29064 3.56166 3.62621V3.89878C3.56166 4.88231 2.76436 5.67961 1.78083 5.67961H1.34709C0.60311 5.67961 0 6.28272 0 7.0267C0 7.77067 0.603112 8.37379 1.34709 8.37379H1.78083C2.76436 8.37379 3.56166 9.17109 3.56166 10.1546V12.6915C3.56166 13.9393 4.50558 15 5.75344 15C7.0013 15 7.94522 13.9393 7.94522 12.6915V10.1942C7.94522 9.18881 8.76024 8.37379 9.76563 8.37379H10.1421Z" fill="white"/>
</g>
<defs>
<filter id="filter0_d_1_94" x="-10" y="-10" width="52" height="55" filterUnits="userSpaceOnUse" color-interpolation-filters="sRGB">
<feFlood flood-opacity="0" result="BackgroundImageFix"/>
<feColorMatrix in="SourceAlpha" type="matrix" values="0 0 0 0 0 0 0 0 0 0 0 0 0 0 0 0 0 0 127 0" result="hardAlpha"/>
<feOffset dx="10" dy="10"/>
<feGaussianBlur stdDeviation="10"/>
<feComposite in2="hardAlpha" operator="out"/>
<feColorMatrix type="matrix" values="0 0 0 0 0.134056 0 0 0 0 0.315238 0 0 0 0 0.957611 0 0 0 0.25 0"/>
<feBlend mode="normal" in2="BackgroundImageFix" result="effect1_dropShadow_1_94"/>
<feBlend mode="normal" in="SourceGraphic" in2="effect1_dropShadow_1_94" result="shape"/>
</filter>
</defs>
</svg>
