<svg width="44" height="44" viewBox="0 0 44 44" fill="none" xmlns="http://www.w3.org/2000/svg">
<path d="M9.36948 26.2048H16.3369C16.9752 26.205 17.5359 26.7421 17.5359 27.4425V34.4932C17.5358 35.0118 17.238 35.4499 16.7888 35.6357L16.7828 35.6387L16.7759 35.6417C16.3571 35.8195 15.8434 35.7308 15.4797 35.3672L13.9368 33.8015L12.8517 32.7025L11.7686 33.8025L3.57636 42.1225L3.57536 42.1235C3.11028 42.5961 2.34584 42.5962 1.88083 42.1235C1.40141 41.6361 1.40271 40.8394 1.87885 40.3566L10.0978 32.0386L11.1532 30.9703L10.0998 29.9011L8.54897 28.3254L8.54005 28.3165C8.20537 27.9817 8.08867 27.4555 8.27348 26.9659C8.4857 26.4775 8.92826 26.2048 9.36948 26.2048ZM40.1456 1.87489C40.6103 1.40406 41.349 1.40415 41.8143 1.8739V1.87489C42.2925 2.36099 42.2935 3.15597 41.8163 3.64275L34.2504 11.3088L33.2079 12.3641L34.2365 13.4334L36.3908 15.6719H36.3918C36.724 16.0324 36.8295 16.5806 36.6465 17.0533C36.4399 17.5207 36.0064 17.7936 35.5515 17.7936H27.387C26.7302 17.7936 26.187 17.2681 26.187 16.5559V7.97322C26.1871 7.43868 26.4903 7.00142 26.9232 6.82272L26.9242 6.82371C27.3158 6.66489 27.7609 6.72118 28.1124 6.99019L28.2571 7.11902L30.4748 9.45272L31.5579 10.5933L32.6619 9.47254L40.1456 1.87489Z" stroke="#C62C2C" stroke-width="3"/>
</svg>
