<svg width="43" height="44" viewBox="0 0 43 44" fill="none" xmlns="http://www.w3.org/2000/svg">
<path d="M25.5641 34.4233L25.617 27.4724C25.6222 26.8165 26.1641 26.2816 26.8212 26.2865L33.7583 26.3401C34.2477 26.3439 34.6735 26.6322 34.8548 27.0867L34.8596 27.0996C35.0129 27.4735 34.9587 27.9159 34.7024 28.2609L34.5806 28.4024L31.9449 30.9979L33.0131 32.0807L41.1364 40.3167L41.1374 40.3177C41.5999 40.7865 41.5941 41.5598 41.1244 42.0213C40.6519 42.4854 39.8949 42.4775 39.4337 42.0102L31.3105 33.7475L30.2443 32.6638L29.1608 33.7289L27.5987 35.2642L27.5907 35.273L27.4583 35.3858C27.1365 35.6217 26.7011 35.6822 26.2947 35.5222C25.8308 35.3117 25.5606 34.8739 25.5641 34.4233ZM1.86249 3.54182C1.42953 3.10214 1.40733 2.41688 1.79249 1.95234L1.87529 1.86196C2.34678 1.4005 3.10248 1.40657 3.56702 1.87503L11.052 9.48181L12.1055 10.5516L13.1879 9.51118L15.4075 7.3804L15.4075 7.37941C15.7584 7.05654 16.2816 6.95965 16.7291 7.13832C17.1754 7.34228 17.4465 7.77355 17.443 8.23907L17.3809 16.3851C17.3755 17.0592 16.8455 17.576 16.1767 17.571L7.73288 17.5057C7.28938 17.5023 6.90866 17.2756 6.7044 16.9239L6.62844 16.766C6.45208 16.3117 6.55933 15.794 6.9275 15.4327L9.24356 13.2344L10.3667 12.1686L9.27888 11.0659L1.86249 3.54182Z" stroke="#C62C2C" stroke-width="3"/>
</svg>
