<svg width="16" height="17" viewBox="0 0 16 17" fill="none" xmlns="http://www.w3.org/2000/svg">
<path fill-rule="evenodd" clip-rule="evenodd" d="M8.54625 0.177923C8.22354 -0.0593076 7.77647 -0.0593076 7.45376 0.177923L0.710305 5.13022C0.262305 5.45956 0 5.97052 0 6.51276V14.7724C0 15.8256 0.960001 16.5103 1.91549 16.5103H5.29578H10.7042H14.0845C15.04 16.5103 16 15.8256 16 14.7724V6.51276C16 5.97052 15.7377 5.45956 15.2897 5.13022L8.54625 0.177923ZM11.6056 14.7724H14.0845C14.1422 14.7724 14.1792 14.755 14.1972 14.742V6.51276L8 1.96106L1.80282 6.51276L1.25658 5.82192L1.80282 6.51276V14.742C1.82085 14.755 1.8578 14.7724 1.91549 14.7724H4.39437V9.55852C4.39437 9.07884 4.7982 8.68954 5.29578 8.68954H10.7042C11.2018 8.68954 11.6056 9.07884 11.6056 9.55852V14.7724ZM6.19719 14.7724H9.80282V10.4275H6.19719V14.7724Z" fill="#880808"/>
</svg>
